<svg width="25" height="25" viewBox="0 0 25 25" fill="none" xmlns="http://www.w3.org/2000/svg">
<path d="M15.6219 14.6415H14.839L14.5615 14.3739C15.5663 13.2085 16.1185 11.7207 16.1174 10.182C16.1174 8.90799 15.7396 7.66259 15.0318 6.60328C14.324 5.54398 13.318 4.71836 12.141 4.23081C10.9639 3.74327 9.66875 3.61571 8.41922 3.86425C7.16968 4.1128 6.02192 4.7263 5.12105 5.62716C4.22019 6.52802 3.6067 7.67579 3.35815 8.92532C3.1096 10.1749 3.23717 11.47 3.72471 12.6471C4.21225 13.8241 5.03788 14.8301 6.09718 15.5379C7.15648 16.2457 8.40188 16.6235 9.67589 16.6235C11.2714 16.6235 12.7381 16.0388 13.8678 15.0676L14.1354 15.3451V16.128L19.0904 21.0731L20.567 19.5965L15.6219 14.6415ZM9.67589 14.6415C7.2083 14.6415 5.21638 12.6496 5.21638 10.182C5.21638 7.7144 7.2083 5.72249 9.67589 5.72249C12.1435 5.72249 14.1354 7.7144 14.1354 10.182C14.1354 12.6496 12.1435 14.6415 9.67589 14.6415Z" fill="#4F4F4F"/>
</svg>
