<svg width="39" height="35" viewBox="0 0 39 35" fill="none" xmlns="http://www.w3.org/2000/svg">
<path d="M0.518883 19.5596L8.10679 32.7683L11.6089 25.4948L7.77786 18.8276C7.56898 18.4752 7.45877 18.0731 7.45877 17.6635C7.45877 17.2538 7.56898 16.8517 7.77786 16.4993L12.5586 8.17938C12.9859 7.43768 13.7163 7.01362 14.566 7.01362H17.1378L12.1619 18.2246H18.3084L9.94975 34.4404L26.7379 14.3032H21.5767L25.0981 7.01524H34.8563L38.697 0.333496H11.5686C10.1819 0.333496 8.99199 1.0236 8.29866 2.22644L0.518883 15.7705C0.179215 16.3441 0 16.9985 0 17.6651C0 18.3317 0.179215 18.986 0.518883 19.5596ZM12.149 34.9999H27.1281C27.794 35.0083 28.4498 34.8366 29.026 34.5028C29.6022 34.169 30.0774 33.6855 30.4013 33.1037L38.1811 19.5596C38.5189 18.9854 38.6971 18.3313 38.6971 17.6651C38.6971 16.9988 38.5189 16.3447 38.1811 15.7705L35.0692 10.3529H27.3893L30.9205 16.5009C31.3429 17.2426 31.3429 18.0924 30.9205 18.8292L26.1414 27.1524C25.9419 27.5098 25.6497 27.8068 25.2956 28.012C24.9414 28.2172 24.5384 28.323 24.1291 28.3181H20.656L18.2423 28.2907L12.149 34.9999Z" fill="#170039"/>
</svg>
