<svg width="21" height="21" viewBox="0 0 21 21" fill="none" xmlns="http://www.w3.org/2000/svg">
<g clip-path="url(#clip0_2_446)">
<path d="M6.01221 11.4769L7.53373 9.65141C8.13658 8.92748 8.43801 8.56593 8.83427 8.56593C9.23137 8.56593 9.5328 8.92748 10.1356 9.65141L10.3558 9.91558C10.9586 10.6395 11.2601 11.0011 11.6572 11.0011C12.0534 11.0011 12.3549 10.6395 12.9577 9.91558L14.4792 8.09009" stroke="black" stroke-width="2.17724" stroke-linecap="round"/>
<path d="M18.7129 9.78343C18.7129 13.7748 18.7129 15.7705 17.4724 17.01C16.2337 18.2505 14.2372 18.2505 10.2458 18.2505C6.25448 18.2505 4.2588 18.2505 3.01838 17.01C1.77881 15.7713 1.77881 13.7748 1.77881 9.78343C1.77881 5.79208 1.77881 3.7964 3.01838 2.55598C4.25965 1.31641 6.25448 1.31641 10.2458 1.31641C14.2372 1.31641 16.2329 1.31641 17.4724 2.55598C18.2971 3.38067 18.5732 4.5398 18.6663 6.39662" stroke="black" stroke-width="2.17724" stroke-linecap="round"/>
</g>
<defs>
<clipPath id="clip0_2_446">
<rect width="20.3209" height="20.3209" fill="white" transform="translate(0.0854492 0.348877)"/>
</clipPath>
</defs>
</svg>
