<svg width="14" height="23" viewBox="0 0 14 23" fill="none" xmlns="http://www.w3.org/2000/svg">
<path d="M3.80116 11.53L12.611 20.3398C12.9107 20.6395 13.0557 20.9891 13.0461 21.3886C13.0366 21.7882 12.8815 22.1378 12.5811 22.4374C12.2806 22.7371 11.931 22.8869 11.5323 22.8869C11.1335 22.8869 10.7839 22.7371 10.4835 22.4374L1.25409 13.238C1.01436 12.9983 0.834568 12.7286 0.714706 12.4289C0.594843 12.1293 0.534912 11.8296 0.534912 11.53C0.534912 11.2303 0.594843 10.9307 0.714706 10.631C0.834568 10.3313 1.01436 10.0616 1.25409 9.82192L10.4835 0.592528C10.7831 0.292873 11.1379 0.147839 11.5479 0.157428C11.9578 0.167017 12.3122 0.322039 12.611 0.622494C12.9099 0.922949 13.0597 1.27255 13.0605 1.67129C13.0613 2.07003 12.9115 2.41963 12.611 2.72008L3.80116 11.53Z" fill="#979797"/>
</svg>
