<svg width="19" height="19" viewBox="0 0 19 19" fill="none" xmlns="http://www.w3.org/2000/svg">
<path d="M9.70538 18.8273C7.39096 18.8273 5.37438 18.0602 3.65567 16.5259C1.93696 14.9917 0.951479 13.0754 0.699239 10.7771H2.7621C2.9969 12.5213 3.77273 13.9636 5.08961 15.1041C6.40649 16.2445 7.94508 16.8147 9.70538 16.8147C11.6676 16.8147 13.3323 16.1315 14.6995 14.7649C16.0667 13.3984 16.75 11.7337 16.7493 9.77081C16.7486 7.80791 16.0654 6.14353 14.6995 4.77769C13.3337 3.41184 11.669 2.72824 9.70538 2.7269C8.54817 2.7269 7.46643 2.99524 6.46015 3.53192C5.45388 4.0686 4.60693 4.80653 3.91931 5.74572H6.68656V7.75827H0.648926V1.72063H2.66147V4.08537C3.5168 3.01201 4.56098 2.18184 5.794 1.59484C7.02702 1.00785 8.33081 0.714355 9.70538 0.714355C10.9632 0.714355 12.1416 0.953513 13.2404 1.43183C14.3393 1.91014 15.2952 2.5555 16.1083 3.3679C16.9214 4.1803 17.5671 5.13626 18.0454 6.23578C18.5237 7.3353 18.7625 8.51364 18.7618 9.77081C18.7612 11.028 18.5224 12.2063 18.0454 13.3059C17.5684 14.4054 16.9227 15.3613 16.1083 16.1737C15.2939 16.9861 14.3379 17.6318 13.2404 18.1108C12.1429 18.5898 10.9646 18.8286 9.70538 18.8273ZM12.5229 13.9972L8.69911 10.1733V4.73945H10.7117V9.36831L13.9317 12.5884L12.5229 13.9972Z" fill="black"/>
</svg>
