<svg width="29" height="26" viewBox="0 0 29 26" fill="none" xmlns="http://www.w3.org/2000/svg">
<path d="M1.05411 14.1585L6.44388 23.5407L8.93147 18.3743L6.21024 13.6385C6.06188 13.3882 5.98359 13.1026 5.98359 12.8116C5.98359 12.5206 6.06188 12.235 6.21024 11.9847L9.60605 6.07497C9.90955 5.54813 10.4284 5.24692 11.0319 5.24692H12.8587L9.3243 13.2102H13.6902L7.75296 24.7284L19.6778 10.4248H16.0117L18.513 5.24806H25.4444L28.1725 0.501953H8.90283C7.91788 0.501953 7.07265 0.99214 6.58017 1.84653L1.05411 11.467C0.812845 11.8744 0.685547 12.3392 0.685547 12.8127C0.685547 13.2863 0.812845 13.751 1.05411 14.1585ZM9.31514 25.1258H19.955C20.4279 25.1318 20.8937 25.0098 21.303 24.7727C21.7123 24.5356 22.0498 24.1923 22.2799 23.779L27.806 14.1585C28.0459 13.7506 28.1725 13.286 28.1725 12.8127C28.1725 12.3395 28.0459 11.8749 27.806 11.467L25.5955 7.61883H20.1405L22.6487 11.9858C22.9488 12.5127 22.9488 13.1163 22.6487 13.6397L19.254 19.5517C19.1124 19.8056 18.9048 20.0165 18.6533 20.1623C18.4017 20.308 18.1154 20.3832 17.8247 20.3797H15.3577L13.6432 20.3603L9.31514 25.1258Z" fill="#170039"/>
</svg>
