<svg width="23" height="22" viewBox="0 0 23 22" fill="none" xmlns="http://www.w3.org/2000/svg">
<path d="M0.30577 12.1156L4.77721 19.8993L6.84096 15.6131L4.58338 11.6842C4.46029 11.4765 4.39535 11.2396 4.39535 10.9982C4.39535 10.7568 4.46029 10.5198 4.58338 10.3122L7.4006 5.40936C7.65239 4.97228 8.08281 4.72239 8.58355 4.72239H10.099L7.16686 11.3288H10.7889L5.86324 20.8846L15.7563 9.01806H12.7148L14.79 4.72334H20.5403L22.8036 0.785889H6.8172C6.00007 0.785889 5.29885 1.19256 4.89028 1.90137L0.30577 9.8827C0.105609 10.2207 0 10.6063 0 10.9991C0 11.392 0.105609 11.7776 0.30577 12.1156ZM7.15926 21.2143H15.9862C16.3786 21.2193 16.765 21.1181 17.1046 20.9213C17.4441 20.7246 17.7242 20.4398 17.915 20.0969L22.4996 12.1156C22.6987 11.7772 22.8036 11.3917 22.8036 10.9991C22.8036 10.6065 22.6987 10.2211 22.4996 9.8827L20.6658 6.69017H16.1402L18.221 10.3131C18.4699 10.7502 18.4699 11.2509 18.221 11.6851L15.4047 16.5899C15.2872 16.8005 15.115 16.9755 14.9063 17.0964C14.6976 17.2174 14.4601 17.2797 14.2189 17.2768H12.1723L10.7499 17.2607L7.15926 21.2143Z" fill="#170039"/>
</svg>
