<svg width="39" height="35" viewBox="0 0 39 35" fill="none" xmlns="http://www.w3.org/2000/svg">
<path d="M0.518883 19.5591L8.10679 32.7678L11.6089 25.4943L7.77786 18.8271C7.56898 18.4747 7.45877 18.0726 7.45877 17.663C7.45877 17.2533 7.56898 16.8512 7.77786 16.4988L12.5586 8.17889C12.9859 7.43719 13.7163 7.01314 14.566 7.01314H17.1378L12.1619 18.2241H18.3084L9.94975 34.4399L26.7379 14.3027H21.5767L25.0981 7.01475H34.8563L38.697 0.333008H11.5686C10.1819 0.333008 8.99199 1.02311 8.29866 2.22595L0.518883 15.77C0.179215 16.3436 0 16.998 0 17.6646C0 18.3312 0.179215 18.9855 0.518883 19.5591ZM12.149 34.9994H27.1281C27.794 35.0078 28.4498 34.8361 29.026 34.5023C29.6022 34.1685 30.0774 33.685 30.4013 33.1032L38.1811 19.5591C38.5189 18.9849 38.6971 18.3308 38.6971 17.6646C38.6971 16.9983 38.5189 16.3442 38.1811 15.77L35.0692 10.3524H27.3893L30.9205 16.5004C31.3429 17.2421 31.3429 18.0919 30.9205 18.8287L26.1414 27.1519C25.9419 27.5093 25.6497 27.8063 25.2956 28.0115C24.9414 28.2167 24.5384 28.3225 24.1291 28.3176H20.656L18.2423 28.2902L12.149 34.9994Z" fill="white"/>
</svg>
